<svg width="146" height="146" viewBox="0 0 146 146" fill="none" xmlns="http://www.w3.org/2000/svg">
<path d="M109.843 141.811C109.843 142.919 94.0479 143.818 74.563 143.818C55.0782 143.818 39.2827 142.919 39.2827 141.811C39.2827 140.703 55.0782 139.805 74.563 139.805C94.0479 139.805 109.843 140.703 109.843 141.811Z" fill="#263238"/>
<path d="M45.2493 82.0894L30.1121 76.9698C29.5301 76.7729 28.8865 76.9277 28.4579 77.368L17.3108 88.8174C16.9286 89.2098 16.7744 89.7713 16.9029 90.3039L19.8255 102.44L49.2121 95.3634L46.2894 83.2273C46.1613 82.6944 45.7685 82.2649 45.2493 82.0894Z" fill="white" stroke="#9ABAE3" stroke-width="0.73" stroke-miterlimit="10" stroke-linecap="round" stroke-linejoin="round"/>
<path d="M47.5758 88.5684L46.1994 88.8998C45.4329 89.0843 44.7192 89.4429 44.1133 89.9475L34.7214 99.7438L21.9853 95.2823C21.2123 95.1056 20.4087 95.1106 19.6379 95.296L18.189 95.645L22.1453 112.074L51.5322 104.997L47.5758 88.5684Z" fill="white" stroke="#9ABAE3" stroke-width="0.73" stroke-miterlimit="10" stroke-linecap="round" stroke-linejoin="round"/>
<path d="M51.5321 104.997L22.1453 112.074L31.152 98.4959C31.5272 97.9863 32.0703 97.626 32.6856 97.4777L35.5025 96.7994C36.1178 96.6513 36.7654 96.7249 37.3316 97.0078L51.5321 104.997Z" fill="white" stroke="#9ABAE3" stroke-width="0.73" stroke-miterlimit="10" stroke-linecap="round" stroke-linejoin="round"/>
<path d="M121.154 103.378L120.039 103.156C119.419 103.033 118.778 103.054 118.166 103.218L108.024 107.2L100.241 99.6629C99.7372 99.2743 99.15 99.0074 98.5257 98.8833L97.3521 98.6503L94.7092 111.957L118.511 116.685L121.154 103.378Z" fill="white" stroke="#9ABAE3" stroke-width="0.73" stroke-miterlimit="10" stroke-linecap="round" stroke-linejoin="round"/>
<path d="M118.512 116.685L94.709 111.957L105.842 105.089C106.287 104.844 106.805 104.764 107.303 104.863L109.585 105.316C110.083 105.415 110.53 105.687 110.848 106.083L118.512 116.685Z" fill="white" stroke="#9ABAE3" stroke-width="0.73" stroke-miterlimit="10" stroke-linecap="round" stroke-linejoin="round"/>
<path d="M97.656 100.189L106.968 109.014C107.326 109.353 107.847 109.457 108.308 109.28L120.285 104.684C120.696 104.526 120.997 104.169 121.083 103.737L121.534 101.463C121.609 101.086 121.364 100.72 120.987 100.645L98.5507 96.1884C98.1735 96.1134 97.807 96.3587 97.732 96.7356L97.2802 99.0094C97.195 99.4416 97.3366 99.8869 97.656 100.189Z" fill="white" stroke="#9ABAE3" stroke-width="0.73" stroke-miterlimit="10" stroke-linecap="round" stroke-linejoin="round"/>
<path d="M126.563 36.6682C125.646 36.2761 125.038 35.8211 124.433 35.488C124.849 36.0477 125.389 36.5906 125.908 37.456C126.511 38.4582 126.526 40.5582 124.645 40.9889C122.765 41.4211 121.863 39.5252 121.968 38.3586C122.058 37.3646 122.305 36.6463 122.435 35.9677C122.03 36.5362 121.68 37.2181 121.017 37.9802C120.25 38.8635 118.258 39.5272 117.266 37.871C116.275 36.2148 117.8 34.7726 118.941 34.5124C119.912 34.2911 120.672 34.3021 121.357 34.216C120.692 34.0069 119.935 33.8849 119.007 33.4916C117.931 33.034 116.684 31.3445 117.953 29.8894C119.221 28.4356 121.065 29.4392 121.664 30.4445C122.176 31.301 122.399 32.026 122.693 32.6506C122.686 31.9536 122.568 31.197 122.656 30.192C122.758 29.0263 123.98 27.3187 125.755 28.0755C127.53 28.8321 127.145 30.896 126.375 31.7769C125.719 32.5285 125.097 32.9657 124.594 33.4372C125.254 33.2159 125.938 32.8699 126.921 32.6427C128.061 32.379 130.063 33.0127 129.892 34.9355C129.721 36.858 127.639 37.1287 126.563 36.6682Z" fill="white" stroke="#9ABAE3" stroke-width="0.73" stroke-miterlimit="10" stroke-linecap="round" stroke-linejoin="round"/>
<path d="M124.523 34.8315C124.198 35.5939 123.316 35.9487 122.554 35.6237C121.791 35.2987 121.436 34.4171 121.761 33.6544C122.086 32.892 122.968 32.5373 123.73 32.8622C124.493 33.1872 124.848 34.0688 124.523 34.8315Z" fill="white" stroke="#9ABAE3" stroke-width="0.73" stroke-miterlimit="10" stroke-linecap="round" stroke-linejoin="round"/>
<path d="M24.4668 33.7067C23.924 34.1564 23.4413 34.3915 23.0366 34.6633C23.5228 34.5833 24.0384 34.4192 24.75 34.3728C25.5746 34.3179 26.8989 34.9874 26.5613 36.3087C26.2249 37.63 24.7422 37.5836 24.0434 37.1404C23.448 36.7625 23.0763 36.3756 22.6917 36.0746C22.918 36.5126 23.2334 36.9526 23.4979 37.6154C23.8051 38.3828 23.5779 39.8492 22.2166 39.9371C20.8553 40.0247 20.4425 38.6001 20.648 37.7988C20.8229 37.1173 21.0752 36.6437 21.2425 36.1852C20.8962 36.5356 20.5747 36.9716 20.0278 37.4274C19.3924 37.9556 17.9277 38.193 17.4238 36.9254C16.9201 35.6585 18.147 34.8248 18.9722 34.7731C19.6757 34.7287 20.2036 34.8225 20.6909 34.84C20.2509 34.6189 19.7373 34.4484 19.1343 34.0682C18.435 33.6273 17.7569 32.3078 18.8064 31.4367C19.8558 30.566 21.0276 31.4753 21.3322 32.2441C21.5924 32.8993 21.6659 33.4311 21.7997 33.9C21.8741 33.4136 21.8779 32.8722 22.0528 32.1807C22.2558 31.3792 23.3008 30.3265 24.4539 31.0554C25.6068 31.7842 25.1036 33.18 24.4668 33.7067Z" fill="white" stroke="#9ABAE3" stroke-width="0.73" stroke-miterlimit="10" stroke-linecap="round" stroke-linejoin="round"/>
<path d="M22.6528 34.395C23.0269 34.8456 22.9647 35.5142 22.5141 35.8883C22.0636 36.2623 21.3949 36.2001 21.0208 35.7496C20.6468 35.2987 20.709 34.6303 21.1595 34.2563C21.6101 33.8822 22.2788 33.9444 22.6528 34.395Z" fill="white" stroke="#9ABAE3" stroke-width="0.73" stroke-miterlimit="10" stroke-linecap="round" stroke-linejoin="round"/>
<path d="M133.672 92.5593C133.129 93.009 132.646 93.244 132.242 93.5159C132.728 93.4359 133.243 93.2718 133.955 93.2254C134.78 93.1705 136.104 93.84 135.766 95.1613C135.43 96.4826 133.947 96.4362 133.248 95.9929C132.653 95.6151 132.281 95.2282 131.897 94.9271C132.123 95.3651 132.438 95.8052 132.703 96.468C133.01 97.2354 132.783 98.7021 131.422 98.7897C130.06 98.8773 129.647 97.4526 129.853 96.6514C130.028 95.9699 130.28 95.4962 130.448 95.0378C130.101 95.3882 129.78 95.8242 129.233 96.28C128.598 96.8085 127.133 97.0456 126.629 95.778C126.126 94.511 127.352 93.6774 128.177 93.6257C128.881 93.5813 129.409 93.675 129.896 93.6926C129.456 93.4715 128.942 93.301 128.34 92.9208C127.64 92.4799 126.962 91.1603 128.012 90.2893C129.061 89.4186 130.233 90.3278 130.537 91.0967C130.798 91.7519 130.871 92.2837 131.005 92.7526C131.079 92.2661 131.083 91.7248 131.258 91.0333C131.461 90.2315 132.506 89.1791 133.659 89.9079C134.812 90.6368 134.309 92.0325 133.672 92.5593Z" fill="white" stroke="#9ABAE3" stroke-width="0.73" stroke-miterlimit="10" stroke-linecap="round" stroke-linejoin="round"/>
<path d="M131.858 93.2475C132.232 93.6984 132.17 94.3668 131.719 94.7408C131.269 95.1149 130.6 95.0527 130.226 94.6021C129.852 94.1516 129.914 93.4829 130.365 93.1088C130.815 92.7348 131.484 92.797 131.858 93.2475Z" fill="white" stroke="#9ABAE3" stroke-width="0.73" stroke-miterlimit="10" stroke-linecap="round" stroke-linejoin="round"/>
<path d="M60.1621 132.899L60.2967 137.76H70.3243L71.2669 132.899H60.1621Z" fill="#F0BA92" stroke="#263238" stroke-width="0.73" stroke-miterlimit="10" stroke-linecap="round" stroke-linejoin="round"/>
<path d="M70.3232 137.76V141.811H55.6887L60.2968 137.76L60.0001 136.821H70.5063L70.3232 137.76Z" fill="#6337E6" stroke="#263238" stroke-width="0.73" stroke-miterlimit="10" stroke-linecap="round" stroke-linejoin="round"/>
<path d="M70.3232 142.242V137.76C69.2466 137.965 66.5795 140.335 65.6437 140.52C64.7078 140.704 63.5818 140.113 62.8288 140.194C62.0757 140.274 61.4313 140.677 60.9477 140.677C60.4642 140.677 59.4206 139.489 58.2505 139.559C57.0805 139.63 54.7488 142.242 55.6888 142.242C56.6287 142.242 70.3232 142.242 70.3232 142.242Z" fill="white" stroke="#263238" stroke-width="0.73" stroke-miterlimit="10" stroke-linecap="round" stroke-linejoin="round"/>
<path d="M61.7028 138.828C61.7028 138.828 60.6084 138.037 59.1799 138.476" stroke="#263238" stroke-width="0.73" stroke-miterlimit="10" stroke-linecap="round" stroke-linejoin="round"/>
<path d="M61.9992 137.975C61.9992 137.975 60.8534 137.261 59.4583 137.796" stroke="#263238" stroke-width="0.73" stroke-miterlimit="10" stroke-linecap="round" stroke-linejoin="round"/>
<path d="M76.252 85.7089H62.1884C60.1588 92.8194 57.8949 113.34 58.0549 115.065C58.2149 116.791 58.4897 135.002 58.4897 135.002C58.4897 135.002 60.4537 136.452 63.256 135.606C71.6139 133.083 71.8531 135.815 71.8531 135.815C71.8531 135.815 73.203 134.892 73.3119 133.807C73.6138 130.796 73.2675 125.102 73.4243 121.478C73.6378 116.55 72.4844 111.966 72.4844 111.966C72.9294 109.655 76.252 85.7089 76.252 85.7089Z" fill="#9ABAE3" stroke="#263238" stroke-width="0.73" stroke-miterlimit="10" stroke-linecap="round" stroke-linejoin="round"/>
<path d="M70.447 136.204L70.824 134.713C70.824 134.713 72.7465 135.776 71.9187 136.092C71.0909 136.407 70.447 136.204 70.447 136.204Z" fill="#263238"/>
<path d="M73.6022 87.813L69.8535 110.863L68.3433 111.205L69.8424 112.151L68.79 113.386L69.8424 113.964C69.8424 113.964 70.4375 117.302 70.3233 120.955C70.2091 124.608 70.3233 131.861 70.3233 131.861" stroke="#263238" stroke-width="0.73" stroke-miterlimit="10" stroke-linecap="round" stroke-linejoin="round"/>
<path d="M83.1843 131.821L85.8666 135.877L94.3805 130.579L92.613 125.954L83.1843 131.821Z" fill="#F0BA92" stroke="#263238" stroke-width="0.73" stroke-miterlimit="10" stroke-linecap="round" stroke-linejoin="round"/>
<path d="M94.3796 130.58L96.52 134.019L84.0945 141.751L85.8669 135.877L85.1188 135.236L94.0391 129.686L94.3796 130.58Z" fill="#6337E6" stroke="#263238" stroke-width="0.73" stroke-miterlimit="10" stroke-linecap="round" stroke-linejoin="round"/>
<path d="M96.747 134.385L94.3795 130.58C93.5736 131.322 92.5609 134.744 91.8639 135.395C91.1669 136.046 89.8987 136.139 89.3019 136.606C88.705 137.072 88.3707 137.754 87.9602 138.01C87.5496 138.265 86.0356 137.807 85.0793 138.485C84.123 139.163 83.5232 142.613 84.3215 142.116C85.1199 141.619 96.747 134.385 96.747 134.385Z" fill="white" stroke="#263238" stroke-width="0.73" stroke-miterlimit="10" stroke-linecap="round" stroke-linejoin="round"/>
<path d="M87.6247 136.041C87.6247 136.041 86.2777 135.948 85.2969 137.075" stroke="#263238" stroke-width="0.73" stroke-miterlimit="10" stroke-linecap="round" stroke-linejoin="round"/>
<path d="M87.4255 135.16C87.4255 135.16 86.0753 135.159 85.1736 136.351" stroke="#263238" stroke-width="0.73" stroke-miterlimit="10" stroke-linecap="round" stroke-linejoin="round"/>
<path d="M85.8064 85.7089C85.8064 85.7089 88.5577 93.5686 87.2466 96.5351C86.8366 97.4622 88.1538 108.179 87.7091 110.489C87.7091 110.489 90.345 113.241 91.5848 118.519C92.3434 121.748 94.8243 124.237 95.4763 126.674C95.794 127.862 95.1084 129.355 95.1084 129.355C95.1084 129.355 93.967 125.744 86.6719 132.43C84.5324 134.391 83.0018 133.572 83.0018 133.572C83.0018 133.572 74.9516 116.011 74.5995 114.315C74.2976 112.861 73.6549 104.1 73.0204 97.5822L69.6165 96.7C69.6165 96.7 68.7028 87.8822 68.723 85.7092H85.8064V85.7089Z" fill="#9ABAE3"/>
<path d="M95.1084 129.356C95.1084 129.356 95.1762 128.611 93.9574 128.753C94.0593 128.262 93.9539 127.456 93.814 126.935C93.1523 124.46 90.6408 121.908 89.8703 118.629C88.6112 113.27 85.9344 110.475 85.9344 110.475C86.3873 108.13 85.0572 97.263 85.4722 96.3216C86.6267 93.7111 84.6826 87.257 84.1421 85.7089H85.8065C85.8065 85.7089 88.5592 93.5689 87.2458 96.5351C86.8378 97.4622 88.1539 108.179 87.7103 110.489C87.7103 110.489 90.3445 113.241 91.5846 118.519C92.3432 121.746 94.824 124.237 95.4761 126.674C95.7938 127.862 95.1084 129.356 95.1084 129.356Z" fill="white"/>
<path d="M93.9575 128.753L94.5725 130.41C94.5725 130.41 95.1185 130.044 95.3486 129.492C95.5787 128.94 94.7448 128.732 93.9575 128.753Z" fill="#263238"/>
<path d="M68.7229 85.7089H85.8064C85.8064 85.7089 88.5576 93.5686 87.2465 96.5351C86.8365 97.4622 88.1537 108.179 87.709 110.489C87.709 110.489 90.3449 113.241 91.5847 118.519C92.3434 121.748 94.8242 124.237 95.4762 126.674C95.7939 127.862 95.1083 129.355 95.1083 129.355C95.1083 129.355 93.9669 125.744 86.6718 132.43C84.5324 134.391 83.0017 133.572 83.0017 133.572C83.0017 133.572 74.9516 116.011 74.5994 114.315C74.2975 112.861 73.6548 104.1 73.0203 97.5822L69.6164 96.7" stroke="#263238" stroke-width="0.73" stroke-miterlimit="10" stroke-linecap="round" stroke-linejoin="round"/>
<path d="M72.5232 88.3781L73.0205 97.3077" stroke="#263238" stroke-width="0.73" stroke-miterlimit="10" stroke-linecap="round" stroke-linejoin="round"/>
<path d="M69.1196 87.7701L69.6166 96.6998" stroke="#263238" stroke-width="0.73" stroke-miterlimit="10" stroke-linecap="round" stroke-linejoin="round"/>
<path d="M68.0474 96.3412C69.1561 96.6501 75.1917 98.1098 75.1917 98.1098" stroke="#263238" stroke-width="0.73" stroke-miterlimit="10" stroke-linecap="round" stroke-linejoin="round"/>
<path d="M83.0018 93.2238C83.0018 93.2238 79.8503 92.6293 78.8548 91.3022C77.8597 89.9753 77.749 87.7701 77.749 87.7701" stroke="#263238" stroke-width="0.73" stroke-miterlimit="10" stroke-linecap="round" stroke-linejoin="round"/>
<path d="M61.8608 93.2238C61.8608 93.2238 64.601 92.6293 65.4665 91.3022C66.3316 89.9753 66.4277 87.7701 66.4277 87.7701" stroke="#263238" stroke-width="0.73" stroke-miterlimit="10" stroke-linecap="round" stroke-linejoin="round"/>
<path d="M83.9507 87.3228C83.9507 87.3228 85.4466 93.5981 85.2968 94.7235C85.1032 96.1756 84.5557 97.2256 84.5557 97.2256L85.1736 110.863C85.1736 110.863 87.8025 115.016 88.7824 118.117C89.7621 121.219 92.0224 125.954 92.0224 125.954" stroke="#263238" stroke-width="0.73" stroke-miterlimit="10" stroke-linecap="round" stroke-linejoin="round"/>
<path d="M108.119 56.7256C107.783 57.9727 106.347 59.916 104.543 61.1228C103.617 62.5636 101.209 65.3682 101.209 65.3682L95.1238 59.4955C97.8081 56.7785 99.4816 54.5683 99.4816 54.5683C101.071 52.5126 100.471 49.2341 101.513 49.1103C103.5 48.8743 103.144 53.5907 103.144 53.5907C103.144 53.5907 108.389 55.7097 108.119 56.7256Z" fill="#F0BA92" stroke="#263238" stroke-width="0.73" stroke-miterlimit="10" stroke-linecap="round" stroke-linejoin="round"/>
<path d="M40.6504 63.836C41.2145 64.9976 42.9902 66.6363 44.9892 67.4822C46.1701 68.7229 49.062 71.0248 49.062 71.0248L53.9343 64.1123C50.7869 61.9485 48.7274 60.0926 48.7274 60.0926C46.7798 58.3724 46.7523 55.0395 45.7058 55.1143C43.7097 55.2565 43.9182 59.2989 43.9182 59.2989C43.9182 59.2989 40.1937 62.8891 40.6504 63.836Z" fill="#F0BA92" stroke="#263238" stroke-width="0.73" stroke-miterlimit="10" stroke-linecap="round" stroke-linejoin="round"/>
<path d="M39.5401 13.2014L42.1553 59.2501L104.775 55.6939L102.16 9.64512L39.5401 13.2014Z" fill="white" stroke="#263238" stroke-width="0.73" stroke-miterlimit="10" stroke-linecap="round" stroke-linejoin="round"/>
<path d="M97.5983 18.8272C96.6712 19.1958 95.919 19.3015 95.2553 19.4913C95.9447 19.5955 96.7106 19.5996 97.6888 19.8478C98.823 20.1339 100.314 21.6129 99.2829 23.2443C98.2533 24.8763 96.2773 24.1668 95.5301 23.2651C94.8932 22.4965 94.5615 21.8135 94.1755 21.2403C94.2891 21.9289 94.5218 22.6589 94.5884 23.6669C94.6669 24.8343 93.7211 26.7092 91.8503 26.2332C89.9794 25.7573 90.0454 23.659 90.6712 22.67C91.2038 21.8287 91.7504 21.3011 92.1759 20.7571C91.5568 21.0777 90.9337 21.5242 89.9981 21.8994C88.9119 22.3333 86.8369 22.0138 86.7114 20.0875C86.5861 18.1621 88.6018 17.5749 89.7353 17.8654C90.7019 18.1124 91.3717 18.469 92.0199 18.7052C91.5241 18.2155 90.9071 17.7617 90.2609 16.9871C89.5117 16.0883 89.1747 14.016 90.9676 13.3014C92.7605 12.5869 93.9413 14.3229 94.0158 15.4906C94.08 16.4863 93.9474 17.2341 93.9226 17.9238C94.2354 17.3013 94.4763 16.5739 95.0138 15.7198C95.637 14.729 97.5034 13.7681 98.7371 15.2526C99.9717 16.7365 98.6854 18.396 97.5983 18.8272Z" fill="white" stroke="#6337E6" stroke-width="0.73" stroke-miterlimit="10" stroke-linecap="round" stroke-linejoin="round"/>
<path d="M94.8558 18.9625C95.1627 19.7325 94.7872 20.6056 94.0172 20.9125C93.2472 21.2194 92.3741 20.8439 92.0673 20.0742C91.7604 19.3041 92.1359 18.4314 92.9056 18.1242C93.6759 17.8173 94.549 18.1925 94.8558 18.9625Z" fill="white" stroke="#6337E6" stroke-width="0.73" stroke-miterlimit="10" stroke-linecap="round" stroke-linejoin="round"/>
<path d="M49.0097 20.0122C48.9492 20.7845 48.7659 21.3446 48.671 21.872C48.9793 21.4272 49.2445 20.8946 49.7517 20.2981C50.3389 19.6055 51.8798 19.0728 52.6641 20.3492C53.4493 21.6249 52.2789 22.7593 51.3947 22.9713C50.6414 23.1521 50.0518 23.1497 49.5204 23.2227C50.039 23.379 50.6274 23.4669 51.3527 23.765C52.1931 24.1096 53.1762 25.4101 52.2045 26.551C51.2327 27.6918 49.7928 26.9282 49.318 26.1536C48.9139 25.4945 48.7335 24.9333 48.4999 24.4506C48.5115 24.9917 48.6096 25.5786 48.551 26.3588C48.4817 27.2643 47.5491 28.6008 46.1639 28.0294C44.7792 27.4579 45.0595 25.8525 45.6496 25.1619C46.1525 24.573 46.6302 24.2281 47.0165 23.857C46.5055 24.0351 45.9784 24.3099 45.2175 24.495C44.3348 24.7096 42.7755 24.2357 42.8908 22.7418C43.0062 21.248 44.6198 21.0187 45.459 21.3665C46.1747 21.6623 46.6506 22.0107 47.1228 22.2638C46.796 21.8331 46.3715 21.4161 45.96 20.7492C45.4826 19.9763 45.4514 18.3466 46.9082 17.9945C48.3647 17.6429 49.0812 19.107 49.0097 20.0122Z" fill="white" stroke="#6337E6" stroke-width="0.73" stroke-miterlimit="10" stroke-linecap="round" stroke-linejoin="round"/>
<path d="M48.1656 21.9697C48.8072 22.0194 49.2872 22.5794 49.2376 23.2209C49.1882 23.8625 48.6279 24.3425 47.9864 24.2929C47.3448 24.2432 46.8648 23.6832 46.9144 23.0416C46.9641 22.4001 47.5241 21.9201 48.1656 21.9697Z" fill="white" stroke="#6337E6" stroke-width="0.73" stroke-miterlimit="10" stroke-linecap="round" stroke-linejoin="round"/>
<path d="M89.4559 48.5376C88.871 48.7701 88.3965 48.8369 87.9778 48.9564C88.4126 49.0221 88.8961 49.0247 89.5131 49.1812C90.2285 49.3617 91.1691 50.2949 90.5188 51.3242C89.8694 52.3538 88.6225 51.9061 88.1512 51.3373C87.7495 50.8526 87.5401 50.4216 87.2966 50.0598C87.3681 50.494 87.515 50.9548 87.557 51.5905C87.6067 52.3269 87.0098 53.5101 85.8296 53.2096C84.6493 52.9092 84.6908 51.5855 85.0858 50.9615C85.4219 50.4307 85.7668 50.0981 86.0351 49.7547C85.6444 49.9571 85.2517 50.2385 84.6613 50.4753C83.9759 50.7492 82.6669 50.5475 82.5875 49.3322C82.5086 48.1174 83.78 47.7469 84.4954 47.9303C85.1051 48.0862 85.5279 48.311 85.9367 48.4603C85.6237 48.1513 85.2345 47.8652 84.8271 47.3764C84.3544 46.8093 84.1418 45.502 85.273 45.0512C86.4042 44.6003 87.1491 45.6956 87.1961 46.4323C87.2367 47.0604 87.1529 47.5323 87.1374 47.9674C87.3345 47.5746 87.4867 47.1156 87.826 46.5769C88.219 45.9517 89.3966 45.3455 90.1751 46.2822C90.9536 47.2187 90.1421 48.2658 89.4559 48.5376Z" fill="white" stroke="#6337E6" stroke-width="0.73" stroke-miterlimit="10" stroke-linecap="round" stroke-linejoin="round"/>
<path d="M87.7258 48.6231C87.9194 49.109 87.6825 49.6597 87.1967 49.8533C86.7108 50.0469 86.1601 49.8101 85.9665 49.3242C85.7729 48.8383 86.0097 48.2876 86.4956 48.094C86.9814 47.9004 87.5322 48.1372 87.7258 48.6231Z" fill="white" stroke="#6337E6" stroke-width="0.73" stroke-miterlimit="10" stroke-linecap="round" stroke-linejoin="round"/>
<path d="M52.9711 30.8857L53.288 34.5556C53.3432 35.5288 53.0284 36.0345 52.3436 36.0734C51.6589 36.1122 51.2889 35.6453 51.2337 34.6721L51.1333 30.99C51.0912 30.2515 50.9937 29.0908 50.8407 27.5084L49.237 27.681C48.8945 27.7006 48.6174 27.6349 48.4054 27.4842C48.1937 27.3335 48.0796 27.1186 48.0638 26.8392C48.048 26.56 48.1368 26.3334 48.3301 26.1597C48.5237 25.9859 48.7915 25.8896 49.134 25.87L51.7065 25.8052L54.2697 25.5783C54.6119 25.5588 54.8893 25.6245 55.1013 25.7751C55.3133 25.9258 55.4272 26.141 55.4429 26.4202C55.4587 26.6996 55.3699 26.9259 55.1763 27.0996C54.9827 27.2734 54.7147 27.37 54.3725 27.3893L52.8406 27.3949C52.8631 28.5871 52.9066 29.7504 52.9711 30.8857Z" fill="#263238"/>
<path d="M63.0839 29.1862L62.8509 26.5147C62.7952 25.5327 63.1073 25.0223 63.7877 24.9838C64.468 24.9452 64.8359 25.4171 64.8917 26.3988C64.9235 26.9574 64.9411 27.8287 64.9452 29.0125C65.2185 29.0513 65.4389 29.1518 65.6062 29.3141C65.7736 29.4765 65.8641 29.6744 65.8772 29.9089C65.8906 30.1434 65.8252 30.3504 65.6819 30.53C65.5382 30.7102 65.328 30.8261 65.0509 30.8778L65.316 33.8728C65.3712 34.8461 65.0587 35.3518 64.3784 35.3903C63.698 35.4289 63.3304 34.962 63.2752 33.9887L63.1821 30.9163L61.3013 30.9823L59.4792 31.1266L59.7481 34.1891C59.8033 35.1623 59.4885 35.668 58.8038 35.7069C58.1191 35.7457 57.7491 35.2788 57.6939 34.3056L57.6183 31.2997C57.3368 31.2796 57.1169 31.1858 56.9584 31.0188C56.7998 30.8515 56.714 30.6529 56.7008 30.4231C56.6877 30.1933 56.7551 29.9883 56.9032 29.8085C57.0509 29.6283 57.2542 29.5036 57.5126 29.4347L57.2842 26.8444C57.2285 25.8624 57.543 25.352 58.2277 25.3131C58.9124 25.2743 59.2827 25.7459 59.3385 26.7279C59.3712 27.3046 59.3899 28.194 59.3951 29.3959L61.2084 29.3334C61.8205 29.2986 62.4456 29.2496 63.0839 29.1862Z" fill="#263238"/>
<path d="M72.7899 31.7807C72.0853 31.7848 71.503 31.7994 71.0437 31.8256C70.5841 31.8516 70.1791 31.884 69.829 31.9217C69.7367 32.207 69.6272 32.6316 69.5011 33.1943C69.3747 33.7575 69.278 34.1584 69.21 34.3973C69.0751 34.8841 68.7912 35.1396 68.3588 35.1641C68.1065 35.1784 67.8995 35.1133 67.7374 34.969C67.5754 34.8245 67.4869 34.6151 67.4714 34.3401C67.4559 34.0653 67.6478 33.3064 68.0472 32.0633C67.5724 31.9819 67.3231 31.7249 67.2985 31.2925C67.2653 30.707 67.6676 30.3902 68.5054 30.3426C68.6093 29.9481 68.8131 29.2359 69.1162 28.2063C69.4193 27.177 69.6138 26.5037 69.6999 26.1868C69.7858 25.87 69.8541 25.6425 69.9052 25.5038C69.956 25.3654 70.0267 25.2168 70.1172 25.058C70.2901 24.759 70.5657 24.5986 70.9442 24.5773C71.2233 24.5616 71.4762 24.6331 71.7019 24.7917C71.8432 24.8924 71.9767 25.0948 72.1025 25.3993C72.2284 25.7042 72.3569 26.0221 72.4888 26.3536C72.6208 26.685 72.7619 27.0249 72.9128 27.3735C73.0638 27.7222 73.2734 28.2276 73.5415 28.8902C73.8093 29.553 73.9643 29.9329 74.0061 30.0298C74.0505 30.0185 74.1313 30.0091 74.2484 30.0027C74.5547 29.9852 74.812 30.0588 75.0202 30.2232C75.2284 30.3875 75.3396 30.596 75.3539 30.8483C75.3776 31.2627 75.1411 31.5518 74.6441 31.7156C75.2228 32.9934 75.518 33.7359 75.5297 33.9432C75.5414 34.1506 75.4687 34.3421 75.3116 34.5182C75.1545 34.6943 74.9405 34.79 74.6704 34.8052C74.2648 34.8283 73.9547 34.6201 73.7398 34.18C73.6887 34.0752 73.3718 33.2754 72.7899 31.7807ZM70.227 30.34C70.4533 30.3452 70.7871 30.3353 71.2286 30.3102C71.6701 30.2851 72.0029 30.2573 72.2272 30.2264C71.5206 28.1333 71.1316 27.0888 71.0595 27.0929C70.9964 27.0964 70.7803 27.9088 70.4115 29.5297L70.227 30.34Z" fill="#263238"/>
<path d="M84.7364 28.9468L85.0071 32.9989C85.0532 33.8098 84.7381 34.2343 84.0625 34.2726C83.6659 34.2951 83.3447 34.128 83.0986 33.7715L79.2208 28.0393C79.215 28.2565 79.2263 28.6177 79.255 29.122L79.5735 33.0628C79.6287 34.0361 79.3139 34.5418 78.6292 34.5806C77.9445 34.6195 77.5745 34.1526 77.5193 33.1793L77.4186 29.4972C77.3996 29.164 77.347 28.557 77.2609 27.6757C77.1748 26.7948 77.1143 26.0481 77.0796 25.4355C77.034 24.6337 77.3447 24.2138 78.0116 24.1758C78.4712 24.1498 78.8143 24.311 79.0424 24.6597L83.0025 30.6445L82.8982 29.0507L82.5814 25.3809C82.5262 24.4077 82.841 23.9019 83.5258 23.8631C84.2105 23.8242 84.5805 24.2911 84.6356 25.2644L84.7364 28.9468Z" fill="#263238"/>
<path d="M89.4488 25.0182C89.4564 25.1534 89.4715 25.9798 89.4946 27.497C89.8 27.4617 90.0021 27.441 90.1014 27.4354C90.2004 27.4299 90.4313 27.4395 90.7943 27.464C91.1289 27.1466 91.4338 26.7092 91.7094 26.1509C91.9851 25.5929 92.2009 25.0159 92.3571 24.4193C92.5334 23.7042 92.8514 23.3337 93.3108 23.3077C93.554 23.294 93.7683 23.3652 93.9534 23.522C94.1386 23.6788 94.2384 23.8832 94.2527 24.1355C94.2828 24.6672 94.1009 25.3669 93.7076 26.2344C93.314 27.1019 92.859 27.8486 92.3434 28.4743C92.8275 29.36 93.3557 30.1478 93.9283 30.8384C94.5009 31.5292 94.8984 31.9223 95.1209 32.0181C95.1763 32.042 95.2563 32.0578 95.3609 32.0654C95.4651 32.0729 95.541 32.0957 95.5886 32.1337C95.6359 32.1716 95.6631 32.254 95.6704 32.3798C95.6873 32.6771 95.5927 32.9627 95.3869 33.2366C95.1807 33.5105 94.9112 33.6568 94.5777 33.6754C94.2446 33.6944 93.9339 33.6013 93.6468 33.396C93.3595 33.191 93.0079 32.8108 92.5924 32.256C92.1766 31.7012 91.5383 30.7613 90.6766 29.4362C90.3554 29.5086 90.1157 29.5492 89.9583 29.5582C89.8003 29.5673 89.685 29.565 89.612 29.5509L89.8725 32.4648C89.9282 33.4468 89.6137 33.9572 88.929 33.9961C88.2443 34.0349 87.8743 33.5633 87.8185 32.5813L87.7111 28.7777L87.3957 25.1347C87.3399 24.1527 87.6544 23.6423 88.3392 23.6035C89.0227 23.5647 89.393 24.0365 89.4488 25.0182Z" fill="#263238"/>
<path d="M61.5899 46.2119C61.5654 45.7795 61.547 44.8994 61.535 43.5714C61.2132 43.0022 60.7764 42.3108 60.2239 41.4967C59.6714 40.6829 59.2314 40.0165 58.9038 39.4971C58.5759 38.9779 58.4048 38.5898 58.3902 38.3332C58.3756 38.0765 58.4421 37.8557 58.5899 37.6709C58.7373 37.4864 58.935 37.3868 59.1829 37.3728C59.4305 37.3588 59.6247 37.3906 59.7646 37.4686C59.9048 37.5465 60.0581 37.7051 60.2257 37.9439C60.3927 38.1831 60.5518 38.4386 60.7031 38.7098C61.3175 39.8232 61.8866 40.7714 62.4101 41.5551C62.8726 40.6251 63.247 39.8174 63.5334 39.1321C63.8199 38.447 64.0304 37.9763 64.165 37.72C64.2996 37.4639 64.4296 37.2893 64.5554 37.1961C64.681 37.1033 64.8635 37.0498 65.1024 37.0361C65.3409 37.0227 65.5444 37.1036 65.7126 37.2793C65.8808 37.4551 65.9716 37.6624 65.9854 37.901C65.9991 38.1399 65.8677 38.5405 65.5926 39.1029C65.3173 39.6656 64.9467 40.3824 64.481 41.254C64.0152 42.126 63.6549 42.8668 63.4006 43.4779C63.5317 44.6725 63.6129 45.5447 63.6441 46.0942C63.6993 47.0675 63.3845 47.5735 62.6998 47.6123C62.0153 47.6521 61.6454 47.1849 61.5899 46.2119Z" fill="#263238"/>
<path d="M71.7749 36.5902C73.1129 36.5142 74.259 36.9622 75.2138 37.9337C76.1684 38.9054 76.6873 40.1234 76.7702 41.5875C76.8534 43.0515 76.4735 44.3226 75.6308 45.401C74.7881 46.4793 73.6978 47.0563 72.3598 47.1322C71.0219 47.2082 69.8729 46.7582 68.9139 45.7823C67.9547 44.8065 67.4335 43.5865 67.3503 42.1224C67.2671 40.6583 67.6493 39.3893 68.4967 38.315C69.3443 37.2413 70.437 36.6661 71.7749 36.5902ZM72.2632 45.4296C73.0606 45.3843 73.7045 44.9863 74.1953 44.2353C74.6859 43.4846 74.9043 42.6337 74.8503 41.6829C74.7963 40.7325 74.4859 39.9187 73.9185 39.2409C73.3515 38.5638 72.6644 38.2478 71.8582 38.2937C71.0517 38.3395 70.4052 38.7311 69.9181 39.4681C69.4314 40.2057 69.2147 41.0493 69.2687 41.9998C69.3227 42.9505 69.6358 43.771 70.2084 44.4616C70.781 45.1525 71.466 45.4748 72.2632 45.4296Z" fill="#263238"/>
<path d="M86.2752 37.2992L86.4437 42.6586C86.5009 43.6677 86.2279 44.5487 85.6243 45.3017C85.021 46.0545 84.1246 46.4648 82.9353 46.5322C81.746 46.5997 80.8089 46.296 80.1242 45.6206C79.4395 44.9455 79.0686 44.1034 79.0114 43.0942L78.5722 37.75C78.5164 36.768 78.8309 36.2576 79.5157 36.2188C80.2004 36.18 80.5707 36.6515 80.6264 37.6335L80.778 41.9773C80.8595 43.4099 81.2262 44.3022 81.8791 44.6535C82.1489 44.7919 82.471 44.8503 82.8448 44.829C83.2185 44.8077 83.5298 44.711 83.7774 44.5387C84.0253 44.3668 84.2037 44.1329 84.3135 43.8374C84.5261 43.2829 84.6087 42.5867 84.5611 41.749L84.2201 37.416C84.1643 36.434 84.4788 35.9233 85.1635 35.8844C85.8492 35.8453 86.2194 36.3172 86.2752 37.2992Z" fill="#263238"/>
<path d="M73.6464 16.9692C73.6803 17.5666 73.2236 18.0785 72.6259 18.1124C72.0285 18.1463 71.5166 17.6893 71.4827 17.0918C71.4489 16.4944 71.9058 15.9825 72.5033 15.9487C73.1007 15.9148 73.6126 16.3718 73.6464 16.9692Z" fill="white" stroke="#6337E6" stroke-width="0.73" stroke-miterlimit="10" stroke-linecap="round" stroke-linejoin="round"/>
<path d="M46.404 38.8295C46.4379 39.427 45.9812 39.9388 45.3835 39.9727C44.786 40.0066 44.2742 39.5499 44.2403 38.9522C44.2064 38.3547 44.6634 37.8429 45.2608 37.809C45.8583 37.7754 46.3701 38.2321 46.404 38.8295Z" fill="white" stroke="#6337E6" stroke-width="0.73" stroke-miterlimit="10" stroke-linecap="round" stroke-linejoin="round"/>
<path d="M94.7299 44.0438C94.7638 44.6412 94.3071 45.1531 93.7094 45.187C93.1117 45.2208 92.6001 44.7642 92.5662 44.1664C92.5323 43.569 92.989 43.0571 93.5868 43.0233C94.1845 42.9894 94.6961 43.4464 94.7299 44.0438Z" fill="white" stroke="#6337E6" stroke-width="0.73" stroke-miterlimit="10" stroke-linecap="round" stroke-linejoin="round"/>
<path d="M52.1235 52.658C52.1574 53.2555 51.7007 53.7674 51.103 53.8012C50.5055 53.8351 49.9936 53.3784 49.9598 52.7807C49.9259 52.1833 50.3829 51.6714 50.9803 51.6375C51.5775 51.6036 52.0893 52.0603 52.1235 52.658Z" fill="white" stroke="#6337E6" stroke-width="0.73" stroke-miterlimit="10" stroke-linecap="round" stroke-linejoin="round"/>
<path d="M56.5621 45.8273C56.5805 46.154 56.3308 46.4341 56.0041 46.4524C55.6773 46.4711 55.3973 46.2212 55.3789 45.8944C55.3602 45.5677 55.6102 45.2877 55.9369 45.2693C56.2637 45.2509 56.5437 45.5005 56.5621 45.8273Z" fill="white" stroke="#6337E6" stroke-width="0.73" stroke-miterlimit="10" stroke-linecap="round" stroke-linejoin="round"/>
<path d="M100.631 33.8821C100.65 34.2088 100.4 34.4889 100.073 34.5073C99.7467 34.5259 99.4666 34.276 99.4482 33.9492C99.4298 33.6225 99.6795 33.3425 100.006 33.3241C100.333 33.3057 100.613 33.5553 100.631 33.8821Z" fill="white" stroke="#6337E6" stroke-width="0.73" stroke-miterlimit="10" stroke-linecap="round" stroke-linejoin="round"/>
<path d="M61.0396 21.1261C61.0583 21.4529 60.8083 21.7329 60.4816 21.7513C60.1548 21.7697 59.8748 21.52 59.8564 21.1933C59.838 20.8665 60.0877 20.5865 60.4144 20.5681C60.7409 20.5494 61.0209 20.7994 61.0396 21.1261Z" fill="white" stroke="#6337E6" stroke-width="0.73" stroke-miterlimit="10" stroke-linecap="round" stroke-linejoin="round"/>
<path d="M82.1092 20.8186C82.1279 21.1454 81.8779 21.4254 81.5512 21.4438C81.2245 21.4625 80.9444 21.2125 80.926 20.8858C80.9073 20.5591 81.1573 20.279 81.484 20.2606C81.8108 20.2419 82.0908 20.4916 82.1092 20.8186Z" fill="white" stroke="#6337E6" stroke-width="0.73" stroke-miterlimit="10" stroke-linecap="round" stroke-linejoin="round"/>
<path d="M41.8275 60.5774C40.9028 60.3403 39.8933 59.8497 40.3474 58.7921C40.8015 57.7345 44.0321 57.5266 44.7449 57.5949C45.679 57.6845 45.8177 58.7988 44.3878 59.3343C43.0875 59.8217 42.6562 59.9776 42.6562 59.9776" fill="#F0BA92"/>
<path d="M41.8275 60.5774C40.9028 60.3403 39.8933 59.8497 40.3474 58.7921C40.8015 57.7345 44.0321 57.5266 44.7449 57.5949C45.679 57.6845 45.8177 58.7988 44.3878 59.3343C43.0875 59.8217 42.6562 59.9776 42.6562 59.9776" stroke="#263238" stroke-width="0.73" stroke-miterlimit="10" stroke-linecap="round" stroke-linejoin="round"/>
<path d="M40.3813 62.8155C39.4264 62.3685 38.4324 61.6292 39.142 60.5747C39.8516 59.5203 43.3997 59.9583 44.1586 60.1788C45.1537 60.4679 45.0752 61.7051 43.414 61.9927C41.9032 62.2543 41.4033 62.3352 41.4033 62.3352" fill="#F0BA92"/>
<path d="M40.3813 62.8155C39.4264 62.3685 38.4324 61.6292 39.142 60.5747C39.8516 59.5203 43.3997 59.9583 44.1586 60.1788C45.1537 60.4679 45.0752 61.7051 43.414 61.9927C41.9032 62.2543 41.4033 62.3352 41.4033 62.3352" stroke="#263238" stroke-width="0.73" stroke-miterlimit="10" stroke-linecap="round" stroke-linejoin="round"/>
<path d="M42.331 65.8091C40.4958 65.0178 38.957 64.4137 39.3427 63.2629C39.7281 62.1121 43.1451 61.6078 43.8465 61.6972C44.7657 61.8143 44.9631 63.0389 43.5936 63.5975C42.3482 64.1056 42.289 64.1266 42.289 64.1266" fill="#F0BA92"/>
<path d="M42.331 65.8091C40.4958 65.0178 38.957 64.4137 39.3427 63.2629C39.7281 62.1121 43.1451 61.6078 43.8465 61.6972C44.7657 61.8143 44.9631 63.0389 43.5936 63.5975C42.3482 64.1056 42.289 64.1266 42.289 64.1266" stroke="#263238" stroke-width="0.73" stroke-miterlimit="10" stroke-linecap="round" stroke-linejoin="round"/>
<path d="M45.5657 59.8269C45.7975 58.0548 45.0451 61.065 46.4172 64.0851" stroke="#263238" stroke-width="0.73" stroke-miterlimit="10" stroke-linecap="round" stroke-linejoin="round"/>
<path d="M106.349 53.7466C107.213 53.3395 108.112 52.6682 107.467 51.7148C106.822 50.7614 103.61 51.165 102.923 51.3662C102.022 51.6299 102.096 52.7503 103.601 53.0075C104.97 53.2414 105.423 53.3135 105.423 53.3135" fill="#F0BA92"/>
<path d="M106.349 53.7466C107.213 53.3395 108.112 52.6682 107.467 51.7148C106.822 50.7614 103.61 51.165 102.923 51.3662C102.022 51.6299 102.096 52.7503 103.601 53.0075C104.97 53.2414 105.423 53.3135 105.423 53.3135" stroke="#263238" stroke-width="0.73" stroke-miterlimit="10" stroke-linecap="round" stroke-linejoin="round"/>
<path d="M108.191 55.6727C109.044 55.054 109.882 54.1409 108.987 53.2389C108.091 52.3369 104.689 53.4342 103.985 53.7937C103.062 54.2647 103.372 55.4651 105.057 55.435C106.59 55.4079 107.097 55.393 107.097 55.393" fill="#F0BA92"/>
<path d="M108.191 55.6727C109.044 55.054 109.882 54.1409 108.987 53.2389C108.091 52.3369 104.689 53.4342 103.985 53.7937C103.062 54.2647 103.372 55.4651 105.057 55.435C106.59 55.4079 107.097 55.393 107.097 55.393" stroke="#263238" stroke-width="0.73" stroke-miterlimit="10" stroke-linecap="round" stroke-linejoin="round"/>
<path d="M106.839 58.9798C108.493 57.8574 109.89 56.9747 109.295 55.917C108.7 54.8591 105.249 55.0069 104.577 55.2265C103.696 55.5144 103.733 56.7542 105.183 57.0453C106.502 57.3102 106.564 57.3195 106.564 57.3195" fill="#F0BA92"/>
<path d="M106.839 58.9798C108.493 57.8574 109.89 56.9747 109.295 55.917C108.7 54.8591 105.249 55.0069 104.577 55.2265C103.696 55.5144 103.733 56.7542 105.183 57.0453C106.502 57.3102 106.564 57.3195 106.564 57.3195" stroke="#263238" stroke-width="0.73" stroke-miterlimit="10" stroke-linecap="round" stroke-linejoin="round"/>
<path d="M74.3718 65.3491C72.825 62.8741 70.2201 63.1924 68.1241 63.8655C64.9924 64.8711 59.7624 67.7724 59.7624 67.7724L53.1302 62.5211C52.1053 62.6277 51.3701 62.6922 49.4534 65.7559C46.1541 71.0291 44.7408 68.5203 44.7408 68.5203C44.7408 68.5203 44.4082 69.8784 45.5718 70.8548C49.0119 73.7415 54.2013 77.2949 55.8306 78.0906C58.3033 79.2983 59.777 79.0956 60.4854 78.7972C62.9441 77.7621 67.5965 75.5799 70.7133 73.3523C75.0019 70.2869 76.2251 68.3153 74.3718 65.3491Z" fill="#6337E6" stroke="#263238" stroke-width="0.73" stroke-miterlimit="10" stroke-linecap="round" stroke-linejoin="round"/>
<path d="M44.5033 68.8538C44.0061 68.2634 45.0765 67.3164 45.0765 67.3164L46.5377 68.9764C46.5377 68.9764 45.1922 69.6714 44.5033 68.8538Z" fill="#263238"/>
<path d="M80.3259 64.4142C85.0505 66.8191 85.1337 74.0998 86.0334 79.8802C86.5736 83.3515 89.3356 87.9275 87.9208 89.5618C87.9208 89.5618 88.4937 88.6353 84.9325 88.661C82.6797 88.6773 78.7246 89.525 72.6939 89.9928C65.6748 90.5371 61.741 88.3173 61.1336 88.8298C61.1336 88.8298 59.8623 89.3314 60.4095 86.5983C60.5421 85.9357 62.7995 73.4089 66.5289 67.0717C68.0999 64.4019 70.4184 63.5154 73.0055 63.8468C76.0017 64.2308 77.4459 62.9483 80.3259 64.4142Z" fill="#6337E6"/>
<path d="M87.9266 89.553C87.9634 89.4794 88.1416 89.0037 86.8372 88.7798C86.8095 86.6131 85.0265 83.1118 84.6338 80.3252C83.8054 74.4329 83.8267 67.0249 79.0577 64.5114C78.0787 63.9957 77.2593 63.7963 76.489 63.7472C77.6614 63.6336 78.7906 63.6336 80.325 64.4133C85.051 66.8193 85.134 74.1015 86.033 79.8802C86.5732 83.3448 89.3259 87.9111 87.9266 89.553Z" fill="white"/>
<path d="M73.0057 63.847C76.0017 64.231 77.4459 62.9482 80.3262 64.4141C85.0507 66.819 85.1339 74.0997 86.0336 79.8801C86.5738 83.3514 89.3358 87.9274 87.9211 89.5617C87.9211 89.5617 88.494 88.6352 84.9328 88.6609C82.68 88.6772 78.7248 89.5249 72.6942 89.9927C65.6751 90.537 61.7413 88.3172 61.1339 88.8297C61.1339 88.8297 59.8625 89.3313 60.4097 86.5982C60.521 86.0422 62.0546 77.0562 64.8297 70.5163" stroke="#263238" stroke-width="0.73" stroke-miterlimit="10" stroke-linecap="round" stroke-linejoin="round"/>
<path d="M63.6841 71.2186C63.6841 71.2186 64.2736 71.8137 63.8432 73.0346" stroke="#263238" stroke-width="0.73" stroke-miterlimit="10" stroke-linecap="round" stroke-linejoin="round"/>
<path d="M69.1196 86.66C69.1196 86.66 72.089 87.0001 75.4344 85.0271" stroke="#263238" stroke-width="0.73" stroke-miterlimit="10" stroke-linecap="round" stroke-linejoin="round"/>
<path d="M70.1611 84.9248C70.1611 84.9248 70.9773 85.2951 72.1134 85.0396" stroke="#263238" stroke-width="0.73" stroke-miterlimit="10" stroke-linecap="round" stroke-linejoin="round"/>
<path d="M88.2497 89.3192C88.358 90.008 86.9018 90.3196 86.9018 90.3196L86.6606 88.871C86.6606 88.871 88.1869 88.9197 88.2497 89.3192Z" fill="#263238"/>
<path d="M76.6194 63.7295C78.1425 63.4649 81.1103 63.7908 82.5639 63.9716C86.5661 64.4694 89.7573 64.9203 89.7573 64.9203L94.7319 57.6226C95.838 57.5417 97.1254 57.3122 99.7721 60.1788C104.328 65.1127 104.856 62.9764 104.856 62.9764C104.856 62.9764 105.41 64.1619 104.375 65.41C101.317 69.1 97.8495 73.5848 96.2862 74.7303C93.9134 76.4689 92.5646 76.461 90.723 76.3982C87.8447 76.2998 83.5789 75.0334 81.8383 75.6752" fill="#6337E6"/>
<path d="M104.375 65.4107C101.318 69.0987 97.8491 73.5838 96.2869 74.7314C93.913 76.4688 92.5639 76.46 90.7214 76.3987C90.4382 76.3899 90.1403 76.3666 89.8337 76.3374C91.3113 76.1388 92.9465 75.549 94.6985 74.2642C96.2805 73.1041 99.7939 68.5614 102.892 64.8238C103.35 64.2719 103.499 63.7259 103.526 63.2937C104.667 63.7463 104.857 62.9755 104.857 62.9755C104.857 62.9755 105.409 64.161 104.375 65.4107Z" fill="white"/>
<path d="M76.6194 63.7295C78.1425 63.4649 81.1103 63.7908 82.5639 63.9716C86.5661 64.4694 89.7573 64.9203 89.7573 64.9203L94.7319 57.6226C95.838 57.5417 97.1254 57.3122 99.7721 60.1788C104.328 65.1127 104.856 62.9764 104.856 62.9764C104.856 62.9764 105.41 64.1619 104.375 65.41C101.317 69.1 97.8495 73.5848 96.2862 74.7303C93.9134 76.4689 92.5646 76.461 90.723 76.3982C87.8447 76.2998 83.5789 75.0334 81.8383 75.6752" stroke="#263238" stroke-width="0.73" stroke-miterlimit="10" stroke-linecap="round" stroke-linejoin="round"/>
<path d="M105.113 62.91C105.266 62.484 104.005 61.6766 104.005 61.6766L102.918 63.1994C102.918 63.1994 104.736 63.9607 105.113 62.91Z" fill="#263238"/>
<path d="M89.851 64.783C89.3771 65.3833 88.9978 65.9787 88.9978 65.9787" stroke="#263238" stroke-width="0.73" stroke-miterlimit="10" stroke-linecap="round" stroke-linejoin="round"/>
<path d="M72.9454 63.8799C72.9454 63.8799 71.7502 65.0245 72.4805 65.3524C73.6257 65.8667 75.6943 64.3243 75.6943 64.3243L72.9454 63.8799Z" fill="#263238"/>
<path d="M77.6617 62.1137C78.5514 60.1941 77.9618 58.0304 76.345 57.2808C74.7279 56.5313 72.6959 57.48 71.8062 59.3996C70.9165 61.3192 71.506 63.4829 73.1228 64.2325C74.7396 64.9818 76.7719 64.0333 77.6617 62.1137Z" fill="#F0BA92" stroke="#263238" stroke-width="0.73" stroke-miterlimit="10" stroke-linecap="round" stroke-linejoin="round"/>
<path d="M73.1228 64.2325C73.5742 64.4413 74.0592 64.5187 74.5413 64.4772C74.3092 64.4399 74.0823 64.3709 73.8615 64.2699C72.3291 63.5586 71.7705 61.5079 72.6135 59.6876C73.4577 57.8672 75.384 56.9684 76.9164 57.6786C76.955 57.697 76.9944 57.7154 77.0315 57.7361C76.8297 57.5533 76.5996 57.3991 76.3441 57.2812C74.7276 56.5325 72.6953 57.4806 71.8055 59.4002C70.9161 61.3195 71.5054 63.4824 73.1228 64.2325Z" fill="white"/>
<path d="M77.6617 62.1137C78.5514 60.1941 77.9618 58.0304 76.345 57.2808C74.7279 56.5313 72.6959 57.48 71.8062 59.3996C70.9165 61.3192 71.506 63.4829 73.1228 64.2325C74.7396 64.9818 76.7719 64.0333 77.6617 62.1137Z" stroke="#263238" stroke-width="0.73" stroke-miterlimit="10" stroke-linecap="round" stroke-linejoin="round"/>
<path d="M77.216 57.8209C77.216 57.8209 74.2034 61.0361 76.8422 63.3791C76.8422 63.3791 79.9155 60.2731 77.216 57.8209Z" fill="#263238"/>
<path d="M77.4983 62.4322C77.4983 62.4322 76.1116 60.0039 73.5242 57.4849C73.5242 57.4849 75.6382 56.1028 77.4072 57.9751C78.7489 59.3948 78.1702 61.5512 77.4983 62.4322Z" fill="#9ABAE3" stroke="#263238" stroke-width="0.73" stroke-miterlimit="10" stroke-linecap="round" stroke-linejoin="round"/>
<path d="M76.1479 60.3966C76.1479 60.3966 76.6166 58.6446 76.211 57.7298C75.8346 56.8807 73.6808 55.0834 73.0413 55.1605C72.1954 55.2621 72.8912 57.8425 72.8912 57.8425L73.3929 57.4679C74.5866 58.3506 76.1479 60.3966 76.1479 60.3966Z" fill="#9ABAE3" stroke="#263238" stroke-width="0.73" stroke-miterlimit="10" stroke-linecap="round" stroke-linejoin="round"/>
<path d="M120.496 86.3954C119.22 88.5673 116.628 90.0871 114.813 90.955C112.998 90.0874 110.407 88.5676 109.136 86.3954C107.679 83.923 107.52 80.3048 110.571 79.4201C113.293 78.6375 114.813 82.0913 114.813 82.0913C114.813 82.0913 116.333 78.6375 119.055 79.4201C122.106 80.3048 121.947 83.923 120.496 86.3954Z" fill="#6337E6" stroke="#263238" stroke-width="0.73" stroke-miterlimit="10" stroke-linecap="round" stroke-linejoin="round"/>
<path d="M128.335 59.4773C127.231 60.6226 125.415 61.173 124.173 61.4375C123.187 60.6369 121.82 59.3208 121.361 57.7998C120.832 56.0665 121.268 53.8216 123.272 53.7287C125.059 53.6502 125.483 55.9952 125.483 55.9952C125.483 55.9952 126.926 54.0993 128.482 54.9817C130.224 55.9757 129.592 58.1739 128.335 59.4773Z" fill="#6337E6" stroke="#263238" stroke-width="0.73" stroke-miterlimit="10" stroke-linecap="round" stroke-linejoin="round"/>
<path d="M25.9837 62.9457C25.5591 64.7295 24.0802 66.3402 23.0024 67.3315C21.5544 67.1151 19.4263 66.6105 18.079 65.3701C16.5369 63.9606 15.6542 61.4766 17.5887 60.2096C19.3162 59.084 21.1108 61.163 21.1108 61.163C21.1108 61.163 21.4314 58.4351 23.4927 58.3989C25.8044 58.3633 26.4664 60.9151 25.9837 62.9457Z" fill="#6337E6" stroke="#263238" stroke-width="0.73" stroke-miterlimit="10" stroke-linecap="round" stroke-linejoin="round"/>
</svg>
